<svg width="45" height="45" viewBox="0 0 45 45" fill="none" xmlns="http://www.w3.org/2000/svg">
<path d="M35.0491 5.52577H30.6697V4.83397C30.6697 2.16842 28.5012 0 25.8357 0H19.145C16.4795 0 14.3111 2.16842 14.3111 4.83397V5.52577H9.93163C7.75085 5.52577 5.97656 7.30006 5.97656 9.48084V12.3696C5.97656 13.0977 6.56673 13.6879 7.29492 13.6879H8.35407L10.1232 43.7591C10.1641 44.4557 10.7412 44.9999 11.4392 44.9999H33.5419C34.2399 44.9999 34.817 44.4557 34.8578 43.7591L36.6266 13.6879H37.6861C38.414 13.6879 39.0045 13.0977 39.0045 12.3696V9.48084C39.0041 7.30006 37.2299 5.52577 35.0491 5.52577V5.52577ZM16.9478 4.83397C16.9478 3.62239 17.9334 2.63671 19.145 2.63671H25.8357C27.0473 2.63671 28.0329 3.62239 28.0329 4.83397V5.52577H16.9478V4.83397ZM8.61328 9.48084C8.61328 8.75368 9.20482 8.16248 9.93163 8.16248H35.0491C35.7762 8.16248 36.3674 8.75368 36.3674 9.48084V11.0512H8.61328V9.48084ZM32.2987 42.3632H12.6823L10.9952 13.6879H33.9855L32.2987 42.3632Z" fill="#DD5050"/>
<path d="M22.4904 39.6387C23.2185 39.6387 23.8087 39.0485 23.8087 38.3203V17.666C23.8087 16.9378 23.2185 16.3477 22.4904 16.3477C21.7625 16.3477 21.172 16.9378 21.172 17.666V38.3203C21.172 39.0485 21.7625 39.6387 22.4904 39.6387Z" fill="#DD5050"/>
<path d="M27.7078 39.6373C27.7267 39.6383 27.7459 39.6387 27.7648 39.6387C28.4669 39.6387 29.0509 39.0846 29.0811 38.3763L29.96 17.722C29.9909 16.9945 29.4261 16.3796 28.6986 16.3487C27.9722 16.3185 27.3566 16.8826 27.3257 17.6101L26.4468 38.2644C26.4156 38.9919 26.9803 39.6064 27.7078 39.6373V39.6373Z" fill="#DD5050"/>
<path d="M17.216 39.6386C17.2349 39.6386 17.2541 39.6382 17.2733 39.6372C18.0005 39.6063 18.5652 38.9918 18.5343 38.2643L17.6554 17.61C17.6245 16.8825 17.01 16.318 16.2821 16.3486C15.5546 16.3795 14.9902 16.9944 15.0211 17.7219L15.9 38.3762C15.9299 39.0848 16.5139 39.6386 17.216 39.6386Z" fill="#DD5050"/>
</svg>
